# xmcd CD database file
#
# Track frame offsets:
#	150
#	24460
#	53392
#	72902
#	93792
#	114184
#	135066
#	149293
#	194640
#	212220
#
# Disc length: 3161 seconds
#
# Revision: 0
# Processed by: cddbd v1.5.2PL0 Copyright (c) Steve Scherf et al.
# Submitted via: CDex 1.94
#
DISCID=800c570a
DTITLE=Alexis Korner - Live From London
DYEAR=2016
DGENRE=Blues
TTITLE0=Timber
TTITLE1=	How Long Blues
TTITLE2=Hoochie Coochie Man
TTITLE3=	Willies Trick
TTITLE4=	Mean Fool
TTITLE5=	Heavy Hearted Blues
TTITLE6=Lawdie Miss Clawdie
TTITLE7=	I'd Rather Go Blind
TTITLE8=	Blue Monday
TTITLE9=	The Clapping Song
EXTD=YEAR: 2016
EXTT0=
EXTT1=
EXTT2=
EXTT3=
EXTT4=
EXTT5=
EXTT6=
EXTT7=
EXTT8=
EXTT9=
PLAYORDER=
